<svg xmlns="http://www.w3.org/2000/svg" version="1.1" xmlns:xlink="http://www.w3.org/1999/xlink" xmlns:svgjs="http://svgjs.dev/svgjs" width="1500" height="856" viewBox="0 0 1500 856"><g transform="matrix(1,0,0,1,-0.9090909090909918,-0.3398701802844357)"><svg viewBox="0 0 396 226" data-background-color="#ffffff" preserveAspectRatio="xMidYMid meet" height="856" width="1500" xmlns="http://www.w3.org/2000/svg" xmlns:xlink="http://www.w3.org/1999/xlink"><g id="tight-bounds" transform="matrix(1,0,0,1,0.2400000000000091,0.08973208030873536)"><svg viewBox="0 0 395.52 225.82053583938253" height="225.82053583938253" width="395.52"><g><svg viewBox="0 0 432.9656894869023 247.2" height="225.82053583938253" width="395.52"><g><svg viewBox="0 0 231.52515592515593 247.2" height="247.2" width="231.52515592515593"><g id="textblocktransform"><svg viewBox="0 0 231.52515592515593 247.2" height="247.2" width="231.52515592515593" id="textblock"><g><svg viewBox="0 0 231.52515592515593 247.2" height="247.2" width="231.52515592515593"><g transform="matrix(1,0,0,1,0,0)"><svg width="231.52515592515593" viewBox="2.65 -40 45.050000000000004 48.1" height="247.2" data-palette-color="#fe633d"><path d="M5.95 0L2.65 0 2.65-40 5.95-40 5.95 0ZM13.93 0L8.13 0 8.13-3 13.93-3 13.93 0ZM13.43-18.65L8.13-18.65 8.13-21.63 13.43-21.63 13.43-18.65ZM13.93-37L8.13-37 8.13-40 13.93-40 13.93-37ZM18.95-4.45L15.57-30 19-30 20.8-14.88 21.8-4.45 18.95-4.45ZM19.62 0L19.22-2.6 22.9-2.6 24.05-14.88 25.85-30 29.27-30 25.3 0 19.62 0ZM37.14 5.6L37.14 8.1Q34.52 7.93 33.06 6.95 31.59 5.98 31.42 4.03L31.42 4.03Q31.39 3.73 31.37 3.45 31.34 3.18 31.39 2.9L31.39 2.9Q31.45 1.48 32.31 0.66 33.17-0.15 34.42-0.38L34.42-0.38 34.42-1Q32.12-1.73 31.99-3.58L31.99-3.58Q31.97-3.88 31.97-4.03 31.97-4.17 31.99-4.45L31.99-4.45Q32.07-5.45 32.74-6.18 33.42-6.9 34.39-7.03L34.39-7.03 34.39-7.68Q33.09-8.33 32.46-9.65 31.82-10.98 31.74-13.1L31.74-13.1Q31.7-14.73 31.67-16 31.64-17.28 31.64-18.49 31.64-19.7 31.67-21.06 31.7-22.43 31.74-24.2L31.74-24.2Q31.89-27.2 33.14-28.65 34.39-30.1 37.14-30.3L37.14-30.3 37.14-27.6Q36.02-27.43 35.51-26.7 34.99-25.98 34.95-24.53L34.95-24.53Q34.89-22.53 34.87-20.5 34.84-18.48 34.87-16.53 34.89-14.58 34.95-12.78L34.95-12.78Q34.99-11.33 35.52-10.61 36.05-9.9 37.14-9.7L37.14-9.7 37.14-6.93Q35.95-6.78 35.34-6.28 34.74-5.78 34.74-5L34.74-5Q34.74-4.93 34.74-4.85 34.74-4.78 34.74-4.7L34.74-4.7Q34.74-3.88 35.28-3.49 35.82-3.1 37.14-2.95L37.14-2.95 37.14-0.45Q35.82-0.38 34.97 0.16 34.12 0.7 34.05 2.08L34.05 2.08Q34.02 2.35 34.02 2.61 34.02 2.88 34.05 3.15L34.05 3.15Q34.12 4.48 34.97 4.98 35.82 5.48 37.14 5.6L37.14 5.6ZM39.32 8.08L39.32 8.08 39.32 5.68Q40.92 5.6 41.89 5.06 42.87 4.53 42.99 3.08L42.99 3.08Q43.07 2.8 43.07 2.54 43.07 2.27 42.99 2.02L42.99 2.02Q42.87 0.55 41.91 0.09 40.95-0.38 39.32-0.45L39.32-0.45 39.32-2.8Q42.37-2.63 44.01-1.56 45.64-0.5 45.84 1.98L45.84 1.98Q45.87 2.25 45.88 2.58 45.89 2.9 45.84 3.28L45.84 3.28Q45.64 5.85 43.84 6.9 42.05 7.95 39.32 8.08ZM39.32-7L39.32-7 39.32-9.7Q40.39-9.9 40.91-10.61 41.42-11.33 41.49-12.78L41.49-12.78Q41.57-14.58 41.58-16.53 41.59-18.48 41.58-20.5 41.57-22.53 41.49-24.53L41.49-24.53Q41.42-25.98 40.92-26.7 40.42-27.43 39.32-27.6L39.32-27.6 39.32-30.3Q42.97-30 44.05-27.43L44.05-27.43 44.64-27.43Q44.72-28.65 45.55-29.33 46.37-30 47.7-30L47.7-30 47.7-27.35 47.2-27.35Q46.05-27.35 45.41-26.41 44.77-25.48 44.77-23.6L44.77-23.6 44.77-22.33Q44.77-20.5 44.78-19.1 44.8-17.7 44.78-16.31 44.77-14.93 44.72-13.1L44.72-13.1Q44.59-10.13 43.33-8.68 42.07-7.23 39.32-7Z" opacity="1" transform="matrix(1,0,0,1,0,0)" fill="#fe633d" class="wordmark-text-0" data-fill-palette-color="primary" id="text-0"></path></svg></g></svg></g></svg></g></svg></g><g transform="matrix(1,0,0,1,289.8831431251559,28.23138191701861)"><svg viewBox="0 0 143.08254636174635 190.73723616596277" height="190.73723616596277" width="143.08254636174635"><g><svg xmlns="http://www.w3.org/2000/svg" xmlns:xlink="http://www.w3.org/1999/xlink" version="1.1" x="0" y="0" viewBox="14.182064545497456 2.305679890233672 71.63556922100018 95.4943201097663" enable-background="new 0 0 100 100" xml:space="preserve" height="190.73723616596277" width="143.08254636174635" class="icon-icon-0" data-fill-palette-color="accent" id="icon-0"><path d="M49.4 13.7c-9.6 0-17.4 7.8-17.4 17.4 0 9.6 7.8 17.4 17.4 17.4s17.4-7.8 17.4-17.4C66.8 21.5 59 13.7 49.4 13.7zM59.3 33.4l-2.1 0-9.4 0 3.9 3.9-3.1 3.1-6.4-6.5-2.8-2.8 0 0 0 0 0.8-0.8 2.3-2.3 0 0 3.3-3.3 2.8-2.8 3.1 3.1L49 27.9l-1.1 1.1 9.4 0 2.1 0L59.3 33.4zM74.8 77.8c-2.3-3-3.6-6.8-3.6-10.6V50.1c4.9-5.6 7.6-13.1 7-21.3-1.1-14-12.5-25.3-26.5-26.4-16.4-1.3-30.1 11-31.2 26.9L20.5 30c0 2.6-1 6.7-2.2 9-1.3 2.4-2.6 4.8-3.7 6.5-1.1 1.7 0.1 3.9 2.1 3.9h3.8v13.9c0 2.8 2.3 5.1 5.1 5.1h10.5v5.3c0 3.6-1.4 7.1-4 9.6l-8 8.1c-2.3 2.4-0.7 6.4 2.6 6.4h27.1 28c3.3 0 5.2-3.8 3.2-6.5L74.8 77.8zM49.4 53.7c-12.5 0-22.6-10.1-22.6-22.6 0-12.5 10.1-22.6 22.6-22.6S72 18.7 72 31.2C72 43.6 61.8 53.7 49.4 53.7z" fill="#fe633d" data-fill-palette-color="accent"></path></svg></g></svg></g></svg></g><defs></defs></svg><rect width="395.52" height="225.82053583938253" fill="none" stroke="none" visibility="hidden"></rect></g></svg></g></svg>